<svg xmlns="http://www.w3.org/2000/svg" viewBox="0 0 160 160" width="160" height="160" role="img" aria-label="ornamenKonfetiKuning"><defs></defs><circle cx="42" cy="86" r="4.5" fill="#F5BE2B"/><circle cx="98" cy="17" r="4.5" fill="#FFE27A"/><polygon points="87,29 94,42 80,42" fill="#C9DAE8" transform="rotate(120 87 36)"/><rect x="128" y="77" width="12" height="6" rx="1.5" fill="#C9DAE8" transform="rotate(38 128 77)"/><polygon points="99,126 106,139 92,139" fill="#F58A3A" transform="rotate(99 99 133)"/><rect x="10" y="120" width="12" height="6" rx="1.5" fill="#F5BE2B" transform="rotate(151 10 120)"/><polygon points="51,5 58,18 44,18" fill="#F5BE2B" transform="rotate(121 51 12)"/><circle cx="112" cy="135" r="4.5" fill="#C9DAE8"/><rect x="113" y="91" width="12" height="6" rx="1.5" fill="#F5BE2B" transform="rotate(93 113 91)"/><circle cx="13" cy="79" r="4.5" fill="#F5BE2B"/><circle cx="120" cy="131" r="4.5" fill="#FFCB45"/><rect x="91" y="85" width="12" height="6" rx="1.5" fill="#FFCB45" transform="rotate(149 91 85)"/><polygon points="138,99 145,112 131,112" fill="#FFE27A" transform="rotate(71 138 106)"/><polygon points="105,24 112,37 98,37" fill="#F5BE2B" transform="rotate(138 105 31)"/><polygon points="90,104 97,117 83,117" fill="#F5BE2B" transform="rotate(162 90 111)"/><circle cx="46" cy="26" r="4.5" fill="#FFCB45"/><rect x="21" y="123" width="12" height="6" rx="1.5" fill="#FFCB45" transform="rotate(38 21 123)"/><polygon points="50,112 57,125 43,125" fill="#FFE27A" transform="rotate(11 50 119)"/><circle cx="96" cy="14" r="4.5" fill="#C9DAE8"/><rect x="87" y="141" width="12" height="6" rx="1.5" fill="#F5BE2B" transform="rotate(129 87 141)"/><polygon points="152,46 159,59 145,59" fill="#FFE27A" transform="rotate(27 152 53)"/><polygon points="85,138 92,151 78,151" fill="#FFCB45" transform="rotate(74 85 145)"/><circle cx="46" cy="107" r="4.5" fill="#F5BE2B"/><circle cx="146" cy="137" r="4.5" fill="#FFCB45"/><polygon points="133,57 140,70 126,70" fill="#F58A3A" transform="rotate(174 133 64)"/><circle cx="23" cy="148" r="4.5" fill="#F58A3A"/><circle cx="99" cy="111" r="4.5" fill="#F5BE2B"/><polygon points="83,80 90,93 76,93" fill="#FFE27A" transform="rotate(106 83 87)"/><rect x="53" y="62" width="12" height="6" rx="1.5" fill="#F58A3A" transform="rotate(161 53 62)"/><polygon points="17,91 24,104 10,104" fill="#FFCB45" transform="rotate(90 17 98)"/><rect x="140" y="96" width="12" height="6" rx="1.5" fill="#F5BE2B" transform="rotate(125 140 96)"/><circle cx="93" cy="145" r="4.5" fill="#FFE27A"/><rect x="98" y="51" width="12" height="6" rx="1.5" fill="#F58A3A" transform="rotate(81 98 51)"/><circle cx="60" cy="53" r="4.5" fill="#F5BE2B"/><polygon points="51,55 58,68 44,68" fill="#FFE27A" transform="rotate(145 51 62)"/><circle cx="114" cy="53" r="4.5" fill="#F5BE2B"/></svg>